<?xml version="1.0" encoding="UTF-8"?>
<svg id="Layer_2" data-name="Layer 2" xmlns="http://www.w3.org/2000/svg" viewBox="0 0 622.29 689.7">
  <defs>
    <style>
      .cls-1 {
        fill: #223455;
      }
    </style>
  </defs>
  <g id="Layer_1-2" data-name="Layer 1">
    <path class="cls-1" d="M330.7,689.6h-39.5l-2.3-.5c-72.7-5.1-141.1-35.7-193.4-86.2C40.5,549.8,6.6,478.3,1.3,401.8l-1.2-5.3v-184.9h43.5l53.5,53.5,53.5-53.5h36v171.5c1.5,46.9,29.2,88.5,71.1,108.8,17.6,8.6,36.4,13.3,56.2,12.8,16.5-.4,34,3.3,49.8,8.5,36.8,12.2,70.3,31.9,99.3,57.4l16.9,17c9.6,10.7,17.8,22.2,24.4,35.3-49.9,39.7-110.5,62.5-173.5,66.8l-.1-.1ZM83.1,0C40,5.4,5.4,39.6.8,83.4l-.8,1.5v19.2l.9,1.5c2.9,21.8,13.5,41.6,29.4,56.2,37.2,34,94,32.4,129-2.7,35.1-35.2,36.6-91.8,2.7-129C146.9,13.6,126.1,2.9,104,.1h-20.9v-.1ZM521.1.2c-49,4.4-86.1,45.9-85.1,94.8,1,49.1,40.1,89.1,89.2,91.2,56.4,2.4,102.4-45.5,96.6-102.8-4.5-44.7-40.2-79-84.2-83.2h-16.5ZM621.8,397.4v-185.8c.1,0-185.8,0-185.8,0l-.3,167.4c.4,23.2-5.9,45.4-17.9,65-9.6,15.6-22.2,28.5-37.2,38.9,63.3,18.5,115.8,61.1,147.3,119.1,56.1-54.3,89.1-127,93.9-204.5v-.1Z"/>
  </g>
</svg>